<svg width="73" height="80" viewBox="0 0 73 80" fill="none" xmlns="http://www.w3.org/2000/svg">
<g clip-path="url(#clip0_649_977)">
<path d="M72.0965 33.7371C71.8946 33.5709 70.0777 32.209 66.1748 32.209C65.1654 32.209 64.1223 32.3087 63.113 32.4747C62.3728 27.3922 58.0997 24.934 57.9315 24.8012L56.8885 24.2031L56.2156 25.1666C55.3744 26.4621 54.7351 27.9238 54.365 29.4186C53.6585 32.3087 54.0959 35.0326 55.5763 37.3579C53.7931 38.3545 50.8995 38.5871 50.2939 38.6202H2.51646C1.2716 38.6202 0.262193 39.6169 0.262193 40.846C0.194989 44.9651 0.901486 49.0842 2.34833 52.9708C3.9969 57.2229 6.45314 60.3787 9.61588 62.3055C13.1823 64.4646 19.0031 65.6937 25.564 65.6937C28.5249 65.6937 31.4856 65.428 34.4129 64.8965C38.484 64.1656 42.387 62.7704 45.9871 60.7441C48.9375 59.0554 51.5961 56.9018 53.8603 54.3661C57.6623 50.1472 59.9166 45.4302 61.5651 41.2446H62.238C66.3766 41.2446 68.9336 39.6169 70.3467 38.2216C71.2888 37.3579 71.9953 36.295 72.5001 35.0991L72.803 34.2354L72.0965 33.7371Z" fill="#334155"/>
<path d="M6.95771 37.2589H13.3504C13.6533 37.2589 13.9225 37.0265 13.9225 36.6944V31.0471C13.9225 30.7481 13.6869 30.4824 13.3504 30.4824H6.95771C6.65492 30.4824 6.38574 30.7149 6.38574 31.0471V36.6944C6.41934 37.0265 6.65492 37.2591 6.95771 37.2591V37.2589ZM15.7729 37.2589H22.1657C22.4685 37.2589 22.7377 37.0265 22.7377 36.6944V31.0471C22.7377 30.7481 22.5021 30.4824 22.1657 30.4824H15.7728C15.47 30.4824 15.2008 30.7149 15.2008 31.0471V36.6944C15.2345 37.0265 15.4701 37.2591 15.7728 37.2591M24.7562 37.2591H31.1491C31.4518 37.2591 31.721 37.0265 31.721 36.6944V31.0471C31.721 30.7481 31.4854 30.4824 31.1491 30.4824H24.7562C24.4535 30.4824 24.1843 30.7149 24.1843 31.0471V36.6944C24.1843 37.0265 24.4199 37.2591 24.7562 37.2591ZM33.6052 37.2591H39.998C40.3008 37.2591 40.5699 37.0265 40.5699 36.6944V31.0471C40.5699 30.7481 40.3344 30.4824 39.998 30.4824H33.6052C33.3024 30.4824 33.0332 30.7149 33.0332 31.0471V36.6944C33.0332 37.0265 33.3024 37.2591 33.6052 37.2591ZM15.7729 29.1869H22.1656C22.4684 29.1869 22.7376 28.9212 22.7376 28.6222V22.9749C22.7376 22.6759 22.502 22.4101 22.1656 22.4101H15.7728C15.47 22.4101 15.2008 22.6427 15.2008 22.9749V28.6222C15.2345 28.9211 15.4702 29.1869 15.7729 29.1869ZM24.7562 29.1869H31.1491C31.4518 29.1869 31.721 28.9212 31.721 28.6222V22.9749C31.721 22.6759 31.4854 22.4101 31.1491 22.4101H24.7562C24.4535 22.4101 24.1843 22.6427 24.1843 22.9749V28.6222C24.1843 28.9211 24.4199 29.1869 24.7562 29.1869ZM33.6052 29.1869H39.998C40.3008 29.1869 40.5699 28.9212 40.5699 28.6222V22.9749C40.5699 22.6759 40.3006 22.4101 39.998 22.4101H33.6052C33.3024 22.4101 33.0332 22.6427 33.0332 22.9749V28.6222C33.0332 28.9211 33.3024 29.1869 33.6052 29.1869ZM33.6052 21.0814H39.998C40.3008 21.0814 40.5699 20.8489 40.5699 20.5167V14.8695C40.5699 14.5705 40.3006 14.3047 39.998 14.3047H33.6052C33.3024 14.3047 33.0332 14.5372 33.0332 14.8695V20.5167C33.0332 20.8156 33.3024 21.0814 33.6052 21.0814ZM42.5213 37.2591H48.9141C49.2169 37.2591 49.4861 37.0265 49.4861 36.6944V31.0471C49.4861 30.7481 49.2506 30.4824 48.9141 30.4824H42.5214C42.2185 30.4824 41.9493 30.7149 41.9493 31.0471V36.6944C41.9831 37.0265 42.2186 37.2591 42.5214 37.2591" fill="#334155"/>
</g>
<defs>
<clipPath id="clip0_649_977">
<rect width="72.608" height="80" fill="white" transform="translate(0.196289)"/>
</clipPath>
</defs>
</svg>
