<svg width="81" height="78" viewBox="0 0 81 78" fill="none" xmlns="http://www.w3.org/2000/svg">
<path d="M26.1516 76.6398C24.2935 76.6398 22.5388 75.8142 21.3516 74.3173L3.28754 51.8658C2.10035 50.3689 1.63598 48.4595 2.10035 46.6011L8.55192 18.5755C8.96473 16.7173 10.2035 15.2205 11.9069 14.3948L38.0229 1.90422C38.8488 1.49172 39.7779 1.28516 40.7069 1.28516C41.636 1.28516 42.5647 1.49141 43.3907 1.90453L69.5069 14.3433C71.2101 15.1689 72.4488 16.6658 72.8616 18.5239L79.3132 46.5495C79.7263 48.4077 79.3132 50.3173 78.1263 51.8142L60.0616 74.2658C58.8744 75.7108 57.1197 76.5883 55.2616 76.5883L26.1522 76.6398H26.1516Z" fill="#334155"/>
<path d="M66.8225 44.6378C66.7709 44.6378 66.7709 44.6378 66.8225 44.6378H66.7709C66.7194 44.6378 66.6678 44.6378 66.6678 44.5863C66.5647 44.5863 66.4616 44.5347 66.3581 44.5347C65.9969 44.4831 65.6872 44.4316 65.3775 44.4316C65.2225 44.4316 65.0678 44.4316 64.8612 44.3797H64.8097C63.7259 44.2766 62.8484 44.1734 62.0225 43.9153C61.6612 43.7603 61.5581 43.5541 61.4547 43.3475C61.4547 43.2959 61.4031 43.2959 61.4031 43.2444L60.7322 43.0381C61.0492 40.6102 60.9268 38.145 60.3709 35.7603C59.8074 33.3558 58.8293 31.0679 57.4806 28.9991L57.9969 28.5347V28.4316C57.9969 28.1734 58.0484 27.9153 58.2547 27.6572C58.8741 27.0894 59.6484 26.625 60.5775 26.0572C60.7322 25.9541 60.8869 25.9025 61.0419 25.7991C61.3516 25.6444 61.6097 25.4897 61.9194 25.2831C61.9709 25.2316 62.0741 25.18 62.1775 25.0769C62.2291 25.025 62.2806 25.025 62.2806 24.9734C63.0031 24.3541 63.1581 23.3219 62.6419 22.6506C62.3837 22.2894 61.9194 22.0831 61.4547 22.0831C61.0422 22.0831 60.6806 22.2378 60.3194 22.4959L60.2162 22.5991C60.1131 22.6506 60.0612 22.7541 59.9581 22.8056C59.7 23.0637 59.4934 23.27 59.2872 23.5281C59.1841 23.6313 59.0809 23.7863 58.9259 23.8894C58.2031 24.6637 57.5322 25.2831 56.8612 25.7475C56.7066 25.8506 56.5519 25.9025 56.3969 25.9025C56.2937 25.9025 56.1903 25.9025 56.0872 25.8506H55.9841L55.3644 26.2638C54.6934 25.5412 53.9709 24.9219 53.2484 24.3025C50.1373 21.8707 46.3931 20.3837 42.4613 20.0184L42.4097 19.3475L42.3066 19.2444C42.1516 19.0894 41.9453 18.9347 41.8934 18.5734C41.8419 17.7475 41.9453 16.8184 42.0484 15.7862V15.7347C42.0484 15.5797 42.1 15.3734 42.1516 15.2184C42.2031 14.9091 42.2547 14.5991 42.3066 14.2378V13.7734C42.3066 12.8444 41.5837 12.0703 40.7066 12.0703C40.2934 12.0703 39.8806 12.2766 39.5709 12.5863C39.2616 12.8959 39.1066 13.3088 39.1066 13.7734V14.1862C39.1066 14.5475 39.1581 14.8572 39.2613 15.1669C39.3128 15.3219 39.3128 15.4766 39.3644 15.6831V15.7347C39.4675 16.7669 39.6225 17.6959 39.5194 18.5219C39.4678 18.8831 39.2613 19.0378 39.1066 19.1928L39.0034 19.2959L38.9516 19.9669C38.0225 20.07 37.0934 20.1731 36.1644 20.3797C32.1903 21.2572 28.6806 23.2703 25.9453 26.1603L25.4291 25.7991H25.3259C25.2228 25.7991 25.1194 25.8506 25.0163 25.8506C24.8613 25.8506 24.7066 25.7991 24.5516 25.6959C23.8806 25.2316 23.2097 24.5603 22.4872 23.7862C22.3841 23.6831 22.2809 23.5281 22.1259 23.425C21.9194 23.1669 21.7128 22.9603 21.4547 22.7025C21.4031 22.6506 21.3 22.5994 21.1969 22.4959C21.1453 22.4444 21.0938 22.4444 21.0938 22.3928C20.774 22.1286 20.3729 21.9827 19.9581 21.9797C19.4934 21.9797 19.0291 22.1862 18.7709 22.5475C18.2547 23.2184 18.4097 24.2506 19.1322 24.87C19.1838 24.87 19.1838 24.9219 19.2353 24.9219C19.3384 24.9734 19.3903 25.0766 19.4934 25.1281C19.8031 25.3344 20.0613 25.4894 20.3709 25.6444C20.5259 25.6959 20.6806 25.7991 20.8356 25.9025C21.7644 26.47 22.5388 26.9347 23.1581 27.5025C23.4163 27.7603 23.4163 28.0184 23.4163 28.2766V28.3797L23.9322 28.8444C23.8291 28.9991 23.7259 29.1025 23.6741 29.2572C21.0934 33.3347 20.1128 38.1347 20.7838 42.8831L20.1128 43.0894C20.1128 43.1412 20.0613 43.1412 20.0613 43.1925C19.9581 43.3991 19.8031 43.6056 19.4934 43.7603C18.7194 44.0184 17.7903 44.1219 16.7066 44.225H16.6547C16.5 44.225 16.2934 44.225 16.1388 44.2766C15.8291 44.2766 15.5194 44.3281 15.1581 44.3797C15.055 44.3797 14.9519 44.4316 14.8484 44.4316C14.7969 44.4316 14.7453 44.4316 14.6934 44.4831C13.7644 44.6894 13.1966 45.5669 13.3516 46.3925C13.5066 47.1153 14.1775 47.58 15.0031 47.58C15.1581 47.58 15.2613 47.58 15.4163 47.5281C15.4678 47.5281 15.5194 47.5281 15.5194 47.4766C15.6225 47.4766 15.7256 47.425 15.8288 47.425C16.1903 47.3219 16.4484 47.2188 16.7581 47.0637C16.9128 47.0122 17.0675 46.9087 17.2225 46.8575H17.2741C18.2547 46.4959 19.1322 46.1862 19.9581 46.0831H20.0613C20.3709 46.0831 20.5775 46.2378 20.7322 46.3413C20.7838 46.3413 20.7838 46.3928 20.8353 46.3928L21.5581 46.2897C22.7969 50.1088 25.1709 53.5153 28.3194 55.9928C29.0419 56.5603 29.7644 57.025 30.5388 57.4897L30.2291 58.1603C30.2291 58.2122 30.2806 58.2122 30.2806 58.2634C30.3837 58.47 30.4869 58.7281 30.3838 59.0894C30.0744 59.8638 29.6097 60.6378 29.0419 61.5153V61.5669C28.9388 61.7219 28.8356 61.825 28.7325 61.9797C28.5259 62.2378 28.3709 62.4959 28.1644 62.8056C28.1128 62.8572 28.0612 62.9603 28.0097 63.0637C28.0097 63.1153 27.9581 63.1669 27.9581 63.1669C27.5453 64.0444 27.855 65.025 28.6291 65.3862C28.8353 65.4894 29.0419 65.5412 29.2484 65.5412C29.8678 65.5412 30.4872 65.1281 30.7969 64.5603C30.7969 64.5087 30.8484 64.4572 30.8484 64.4572C30.9 64.3541 30.9516 64.2509 31.0031 64.1991C31.1581 63.8378 31.2097 63.5797 31.3128 63.27L31.4678 62.8056C31.8291 61.7734 32.0872 60.9475 32.5516 60.225C32.7578 59.9153 33.0162 59.8638 33.2225 59.7603C33.2741 59.7603 33.2741 59.7603 33.3256 59.7087L33.6872 59.0378C35.9581 59.9153 38.4356 60.3797 40.9128 60.3797C42.4097 60.3797 43.9581 60.225 45.4034 59.8637C46.3129 59.6604 47.2092 59.4018 48.0872 59.0894L48.3966 59.6572C48.4484 59.6572 48.4484 59.6572 48.5 59.7087C48.7581 59.7603 48.9644 59.8637 49.1709 60.1734C49.5837 60.8959 49.8934 61.7734 50.2547 62.7541V62.8056L50.4097 63.27C50.5128 63.5797 50.5644 63.8894 50.7191 64.1991C50.7709 64.3022 50.8225 64.3541 50.8741 64.4572C50.8741 64.5088 50.9259 64.5603 50.9259 64.5603C51.2353 65.1797 51.8547 65.5412 52.4741 65.5412C52.6806 65.5412 52.8872 65.4894 53.0934 65.3862C53.4547 65.18 53.7644 64.87 53.8678 64.4572C53.9709 64.0444 53.9709 63.5797 53.7647 63.1669C53.7647 63.1153 53.7128 63.1153 53.7128 63.0637C53.6612 62.9606 53.6097 62.8575 53.5581 62.8056C53.4031 62.4959 53.1969 62.2378 52.9903 61.9797C52.8872 61.825 52.7841 61.7219 52.6809 61.5672V61.5153C52.1128 60.6378 51.5966 59.8638 51.3388 59.0894C51.2356 58.7281 51.3387 58.5219 51.3903 58.2637C51.3903 58.2122 51.4419 58.2122 51.4419 58.1606L51.1838 57.5412C53.9194 55.9412 56.2419 53.67 57.9969 50.8831C58.9259 49.4378 59.6484 47.8378 60.1644 46.2378L60.7837 46.3409C60.8356 46.3409 60.8356 46.2894 60.8869 46.2894C61.0934 46.1862 61.2484 46.0316 61.5581 46.0316H61.6612C62.4872 46.1347 63.3644 46.4441 64.3453 46.8056H64.3969C64.5516 46.8572 64.7062 46.9603 64.8612 47.0119C65.1709 47.1669 65.4291 47.27 65.7903 47.3734C65.8934 47.3734 65.9966 47.425 66.1 47.425C66.1516 47.425 66.2031 47.425 66.2547 47.4766C66.4097 47.5281 66.5128 47.5281 66.6678 47.5281C67.4419 47.5281 68.1128 47.0122 68.3194 46.3413C68.3194 45.7219 67.7516 44.8959 66.8225 44.6381V44.6378ZM42.9256 42.1087L40.6547 43.1928L38.3837 42.1087L37.8163 39.6831L39.3644 37.7219H41.8934L43.4419 39.6831L42.9259 42.1087H42.9256ZM56.3969 36.7412C56.7972 38.448 56.9192 40.2081 56.7581 41.9538L48.8612 39.6831C48.1387 39.4769 47.7259 38.7541 47.8806 38.0316C47.9322 37.825 48.0356 37.6184 48.1903 37.4638L54.4356 31.8378C55.3128 33.2831 55.9837 34.935 56.3969 36.7412ZM51.9581 28.7412L45.1969 33.5413C44.6291 33.9025 43.8547 33.7991 43.3903 33.2316C43.2356 33.0766 43.1841 32.87 43.1322 32.6637L42.6678 24.2506C46.1828 24.6554 49.4573 26.2382 51.9581 28.7412ZM36.9903 24.5084C37.5581 24.4053 38.0741 24.3022 38.6419 24.1991L38.1775 32.4569C38.1259 33.1794 37.5581 33.7987 36.7838 33.7987C36.5775 33.7987 36.3194 33.7472 36.1644 33.6441L29.3 28.7412C31.4163 26.625 34.0484 25.1794 36.9903 24.5084ZM26.8225 31.8375L32.9644 37.3084C33.5322 37.7731 33.5838 38.6503 33.1194 39.2181C32.9644 39.4244 32.7581 39.5794 32.5 39.6313L24.5 41.9538C24.1903 38.4441 24.9644 34.8828 26.8225 31.8375ZM25.4288 45.8247L33.6356 44.4309C34.3066 44.3794 34.9259 44.8441 35.0806 45.515C35.1322 45.8244 35.1322 46.0828 35.0291 46.3409L31.8806 53.9278C28.9903 52.0697 26.6675 49.2309 25.4288 45.8247ZM44.2678 56.0956C43.0806 56.3538 41.8934 56.5084 40.6547 56.5084C38.8484 56.5084 37.0934 56.1991 35.4422 55.6828L39.5194 48.3022C39.9322 47.8375 40.6031 47.6313 41.1709 47.9409C41.4119 48.0886 41.6222 48.2812 41.7903 48.5084L45.7644 55.6828C45.3 55.8375 44.7838 55.9409 44.2675 56.0956H44.2678ZM54.3322 48.9216C53.0419 50.9859 51.3384 52.6375 49.3775 53.9278L46.1259 46.1341C45.9709 45.515 46.2291 44.8441 46.8484 44.5341C47.0547 44.4309 47.3128 44.3794 47.5709 44.3794L55.8291 45.7731C55.5194 46.9084 55.0031 47.9409 54.3322 48.9216Z" fill="white"/>
</svg>
