<svg width="100" height="104" viewBox="0 0 100 104" fill="none" xmlns="http://www.w3.org/2000/svg">
<g id="TextFlex: Buy Now * Buy Now * Buy Now *">
<path d="M45.8567 93.4065L43.7928 104L39.7087 103.216C38.9377 103.067 38.3205 102.824 37.857 102.484C37.3893 102.148 37.0691 101.748 36.8962 101.285C36.7198 100.822 36.6827 100.329 36.7848 99.8044C36.8688 99.3734 37.024 99.0204 37.2505 98.7455C37.4763 98.4741 37.7484 98.2706 38.0666 98.1349C38.3849 97.9993 38.7257 97.9235 39.0891 97.9074L39.1093 97.804C38.7348 97.7105 38.3944 97.5253 38.088 97.2483C37.7776 96.974 37.5482 96.6258 37.3998 96.2038C37.2514 95.7818 37.2297 95.3018 37.3345 94.7639C37.4413 94.2156 37.6711 93.7481 38.0238 93.3616C38.3759 92.9784 38.8456 92.7127 39.4329 92.5644C40.0203 92.416 40.722 92.4202 41.5382 92.577L45.8567 93.4065ZM43.6116 94.6388L41.5331 94.2396C40.8316 94.1048 40.3004 94.1405 39.9396 94.3466C39.5746 94.5556 39.3511 94.8704 39.2692 95.2911C39.208 95.6049 39.2311 95.9027 39.3383 96.1844C39.4449 96.4696 39.6282 96.7123 39.8882 96.9126C40.1476 97.1162 40.477 97.2564 40.8764 97.3331L43.007 97.7424L43.6116 94.6388ZM42.7379 99.1234L40.8261 98.7562C40.4927 98.6922 40.1805 98.6948 39.8896 98.7641C39.598 98.8369 39.354 98.9707 39.1575 99.1655C38.9569 99.3631 38.8263 99.617 38.7658 99.9274C38.6859 100.338 38.7659 100.704 39.0059 101.025C39.2424 101.346 39.6455 101.561 40.215 101.671L42.1685 102.046L42.7379 99.1234Z" fill="white"/>
<path d="M29.4854 92.0288L27.5108 96.2881L25.766 95.4907L29.1738 88.1397L30.8655 88.9129L30.2599 90.2194L30.337 90.2546C30.6949 89.9195 31.1256 89.7084 31.6293 89.6216C32.1298 89.5333 32.6579 89.6161 33.2138 89.8702C33.699 90.092 34.0784 90.3949 34.352 90.7789C34.621 91.1648 34.7645 91.6113 34.7826 92.1184C34.7991 92.6286 34.6714 93.1772 34.3992 93.7643L32.2294 98.4448L30.4847 97.6474L32.5302 93.2348C32.7461 92.769 32.7892 92.3402 32.6593 91.9483C32.5295 91.5564 32.2557 91.265 31.8379 91.074C31.5809 90.9566 31.303 90.905 31.0044 90.9193C30.7057 90.9336 30.4222 91.0283 30.1541 91.2035C29.8813 91.3804 29.6584 91.6555 29.4854 92.0288Z" fill="white"/>
<path d="M27.8131 83.5978C28.0196 83.7574 28.1978 83.9219 28.3475 84.0911C28.4967 84.2553 28.6066 84.3982 28.6772 84.5196L27.4063 85.42C27.2358 85.1857 27.063 85.0032 26.8877 84.8721C26.7126 84.7411 26.518 84.6775 26.3043 84.6814C26.0899 84.6804 25.8422 84.7648 25.561 84.9347L25.1606 85.1794L22.3811 93.5004L20.7735 92.2574L23.0728 86.2895L23.0059 86.2377L17.7383 89.9108L16.1265 88.6646L24.3146 83.497C24.6997 83.2517 25.086 83.0851 25.4731 82.9972C25.8625 82.9064 26.2509 82.9086 26.6384 83.0033C27.0252 83.0932 27.4168 83.2913 27.8131 83.5978Z" fill="white"/>
<path d="M2.94036 75.8989L12.1655 70.1967L13.0909 71.6727L9.51308 79.8729L9.56075 79.949L15.8445 76.0649L16.8848 77.7242L7.65962 83.4264L6.72865 81.9415L10.3138 73.743L10.2633 73.6625L3.97506 77.5493L2.94036 75.8989Z" fill="white"/>
<path d="M10.1964 64.1017C10.4275 64.858 10.4602 65.5638 10.2946 66.2193C10.129 66.8749 9.79158 67.4464 9.28257 67.9338C8.77249 68.4178 8.11464 68.7811 7.30903 69.0238C6.50343 69.2666 5.75147 69.328 5.05314 69.2081C4.35377 69.0848 3.75178 68.7963 3.24721 68.3427C2.74263 67.8891 2.3748 67.2842 2.14369 66.528C1.91259 65.7717 1.87986 65.0659 2.0455 64.4103C2.21113 63.7548 2.55069 63.1846 3.06412 62.6994C3.57658 62.2111 4.23558 61.8455 5.04118 61.6028C5.84679 61.36 6.5976 61.3009 7.29356 61.4251C7.9885 61.5462 8.58832 61.8334 9.0929 62.287C9.59747 62.7406 9.9653 63.3455 10.1964 64.1017ZM8.72085 64.5353C8.59552 64.1252 8.37737 63.8166 8.06635 63.6094C7.752 63.4031 7.38131 63.2909 6.95435 63.2727C6.52637 63.2512 6.07542 63.3117 5.60152 63.4545C5.12425 63.5983 4.71375 63.7973 4.36998 64.0514C4.0218 64.3031 3.77474 64.6014 3.6288 64.9464C3.48284 65.2913 3.4725 65.6688 3.59783 66.0789C3.72619 66.4989 3.94812 66.8139 4.26355 67.0235C4.57793 67.2297 4.9508 67.3431 5.38218 67.3636C5.80917 67.3818 6.26127 67.319 6.73854 67.1752C7.21243 67.0324 7.62178 66.8357 7.96655 66.5849C8.31032 66.3308 8.55519 66.0314 8.7011 65.6865C8.84265 65.3392 8.84922 64.9554 8.72085 64.5353Z" fill="white"/>
<path d="M8.33427 56.553L0.231044 58.9977L0.192658 57.054L5.89389 55.5203L5.89244 55.4465L0.134403 54.1042L0.0964343 52.1816L5.76521 50.6169L5.76365 50.5379L0.0384906 49.2476L0 47.2986L8.19362 49.4313L8.23284 51.4172L2.75628 53.0414L2.75846 53.152L8.29494 54.5619L8.33427 56.553Z" fill="white"/>
<path d="M6.00545 37.2617L4.02427 36.4264L4.5281 38.5094L3.25064 38.7368L2.9928 36.6128L1.43294 38.0886L0.593093 37.1061L2.31644 35.8174L0.252747 35.2102L0.688554 34.0053L2.67153 34.8356L2.16771 32.7527L3.44516 32.5252L3.7012 34.6542L5.26286 33.1734L6.10272 34.1559L4.37937 35.4446L6.44126 36.0568L6.00545 37.2617Z" fill="white"/>
<path d="M14.9383 29.3987L6.4887 22.6142L9.10434 19.4024C9.59811 18.7961 10.1048 18.3695 10.6243 18.1226C11.1432 17.8708 11.6489 17.7777 12.1414 17.8434C12.636 17.9063 13.0924 18.1056 13.5104 18.4413C13.8543 18.7174 14.0952 19.0192 14.2332 19.3469C14.3685 19.6723 14.4217 20.0064 14.3929 20.349C14.3639 20.6918 14.2713 21.0262 14.1149 21.3522L14.1974 21.4185C14.4563 21.1341 14.7809 20.9226 15.1712 20.7842C15.5608 20.641 15.9781 20.6034 16.423 20.6715C16.8679 20.7396 17.3049 20.946 17.734 21.2905C18.1713 21.6417 18.479 22.0626 18.657 22.5534C18.8323 23.042 18.848 23.5785 18.7041 24.1631C18.5601 24.7476 18.2268 25.3608 17.7041 26.0026L14.9383 29.3987ZM14.897 26.8519L16.2283 25.2173C16.6775 24.6657 16.8953 24.1832 16.8815 23.7701C16.8671 23.3521 16.6921 23.0083 16.3565 22.7389C16.1062 22.5379 15.8307 22.4183 15.5298 22.3799C15.2262 22.3394 14.9243 22.3861 14.6242 22.52C14.3213 22.6517 14.0419 22.8746 13.7862 23.1887L12.4216 24.8643L14.897 26.8519ZM11.32 23.9798L12.5445 22.4762C12.758 22.2141 12.9022 21.9392 12.9772 21.6516C13.0495 21.3618 13.0451 21.0851 12.9642 20.8213C12.8828 20.5526 12.7183 20.3189 12.4707 20.1202C12.1434 19.8574 11.7804 19.7556 11.3818 19.815C10.9854 19.8716 10.6048 20.1239 10.2401 20.5718L8.98893 22.1081L11.32 23.9798Z" fill="white"/>
<path d="M23.8521 15.6945L20.9923 11.9631L22.521 10.808L27.4565 17.2478L25.9746 18.3675L25.0975 17.223L25.0298 17.2741C25.1598 17.7452 25.145 18.222 24.9855 18.7045C24.8292 19.1844 24.5075 19.6085 24.0205 19.9765C23.5955 20.2977 23.1479 20.488 22.6779 20.5475C22.2085 20.602 21.7442 20.5182 21.2848 20.2958C20.8234 20.0707 20.3956 19.701 20.0015 19.1868L16.8589 15.0864L18.3874 13.9315L21.35 17.797C21.6628 18.2051 22.0238 18.4442 22.4332 18.5145C22.8427 18.5846 23.2304 18.4815 23.5963 18.205C23.8215 18.0348 23.9978 17.8155 24.1254 17.547C24.2529 17.2785 24.3018 16.9856 24.2721 16.6681C24.2432 16.3457 24.1027 16.0215 23.8521 15.6945Z" fill="white"/>
<path d="M32.1306 18.1898C31.8911 18.2961 31.6616 18.3749 31.4405 18.4268C31.2243 18.4806 31.0461 18.5096 30.9051 18.5145L30.7011 16.9776C30.9892 16.9383 31.2327 16.8724 31.4316 16.7803C31.6305 16.6882 31.778 16.5477 31.8749 16.3585C31.9766 16.171 32.0184 15.9139 31.9993 15.5876L31.9696 15.1218L25.8759 8.77792L27.7361 7.95217L31.9625 12.7704L32.0401 12.736L31.2477 6.39337L33.113 5.56534L33.8624 15.1703C33.9004 15.6228 33.8672 16.0397 33.7634 16.4204C33.6612 16.8045 33.4765 17.1441 33.2105 17.4392C32.9492 17.736 32.5893 17.9862 32.1306 18.1898Z" fill="white"/>
<path d="M50.6553 0L51.3937 10.7649L49.6467 10.8831L44.0353 3.89598L43.9459 3.90203L44.4488 11.2346L42.4848 11.3674L41.7465 0.60248L43.5036 0.483647L49.1098 7.47637L49.2058 7.46988L48.7024 0.132064L50.6553 0Z" fill="white"/>
<path d="M57.738 11.9007C56.9573 11.7482 56.314 11.4454 55.8089 10.9924C55.3038 10.5393 54.954 9.97518 54.7593 9.30004C54.5693 8.62575 54.5546 7.87832 54.7171 7.05809C54.8795 6.23788 55.1785 5.54992 55.6123 4.99387C56.0506 4.43872 56.5899 4.04646 57.2301 3.81711C57.8704 3.58777 58.5813 3.54941 59.362 3.70186C60.1427 3.85432 60.786 4.15715 61.2911 4.61017C61.7962 5.06319 62.1439 5.62866 62.3342 6.30657C62.5272 6.98501 62.5434 7.73452 62.3809 8.55474C62.2185 9.37497 61.918 10.0608 61.4813 10.6127C61.0473 11.1651 60.5102 11.5561 59.8699 11.7854C59.2296 12.0148 58.5187 12.0531 57.738 11.9007ZM58.0451 10.4034C58.4684 10.4861 58.8459 10.4399 59.1756 10.2645C59.507 10.0858 59.7808 9.81351 59.9979 9.44783C60.2178 9.0827 60.3759 8.65897 60.4715 8.17648C60.5677 7.69055 60.5833 7.2372 60.5191 6.81658C60.4583 6.39305 60.3091 6.03638 60.0706 5.74639C59.8329 5.45656 59.5015 5.27014 59.0782 5.18747C58.6448 5.10283 58.2606 5.1495 57.9255 5.32749C57.5951 5.50636 57.3191 5.78001 57.0986 6.1486C56.8815 6.51428 56.7248 6.94008 56.6285 7.42601C56.533 7.9085 56.5159 8.35978 56.5774 8.77985C56.6416 9.20047 56.793 9.55578 57.0306 9.84556C57.2735 10.1328 57.6117 10.3188 58.0451 10.4034Z" fill="white"/>
<path d="M65.3248 13.813L66.9559 5.56117L68.7018 6.43998L67.3884 12.1582L67.455 12.1918L71.3521 7.77411L73.0796 8.6437L71.8089 14.348L71.8797 14.3836L75.7158 9.97071L77.4667 10.852L71.7225 17.0334L69.9384 16.1354L71.0661 10.5717L70.9669 10.5218L67.1131 14.7132L65.3248 13.813Z" fill="white"/>
<path d="M86.4534 24.2067L88.2491 23.0285L86.222 22.2948L86.7368 21.112L88.6621 22.0714L88.285 19.9655L89.5736 19.8129L89.7038 21.9513L91.3532 20.5783L92.1242 21.6048L90.3318 22.7875L92.3589 23.5212L91.8441 24.704L89.9155 23.7401L90.2959 25.8505L89.0073 26.0032L88.8772 23.8647L87.2244 25.2332L86.4534 24.2067Z" fill="white"/>
<path d="M88.1204 35.944L98.4835 32.6977L99.7349 36.6363C99.9712 37.38 100.05 38.0351 99.9699 38.6016C99.8947 39.1706 99.6934 39.6401 99.3664 40.0119C99.0403 40.3863 98.6208 40.6538 98.1081 40.8144C97.6864 40.9465 97.2999 40.9791 96.9485 40.9122C96.6008 40.8452 96.2907 40.7041 96.019 40.4907C95.7475 40.2783 95.5178 40.0167 95.3304 39.7069L95.2292 39.7386C95.325 40.1101 95.3232 40.4957 95.2237 40.8945C95.1289 41.2966 94.9301 41.6632 94.627 41.9934C94.3239 42.3236 93.9095 42.5721 93.3833 42.7369C92.8469 42.9049 92.3235 42.9269 91.813 42.8029C91.3059 42.6779 90.8469 42.3948 90.4358 41.9529C90.0246 41.5109 89.6938 40.896 89.4437 40.109L88.1204 35.944ZM90.2813 37.3167L90.9183 39.3214C91.1332 39.9979 91.4179 40.4444 91.7723 40.6611C92.1312 40.8802 92.5166 40.9257 92.9282 40.7968C93.2352 40.7006 93.4876 40.5379 93.6861 40.3105C93.8877 40.081 94.0154 39.8058 94.0688 39.4837C94.1254 39.1597 94.0926 38.8054 93.9703 38.4207L93.3174 36.3656L90.2813 37.3167ZM94.6684 35.9424L95.2542 37.7861C95.3565 38.108 95.5074 38.3787 95.7075 38.5999C95.911 38.8201 96.1457 38.9692 96.4116 39.0473C96.6823 39.1288 96.9693 39.1216 97.2729 39.0264C97.6743 38.9007 97.9603 38.6565 98.1307 38.294C98.3019 37.934 98.3006 37.4804 98.1258 36.9304L97.5274 35.0468L94.6684 35.9424Z" fill="white"/>
<path d="M94.7017 50.8919L99.414 50.5859L99.5393 52.4892L91.4068 53.0173L91.2852 51.1723L92.7307 51.0784L92.7251 50.9942C92.2578 50.8415 91.8657 50.5659 91.5488 50.1674C91.2321 49.7726 91.0538 49.2721 91.0139 48.6661C90.979 48.1368 91.0664 47.6609 91.2761 47.2394C91.4896 46.8204 91.8165 46.4823 92.2569 46.2251C92.7008 45.9677 93.2474 45.8179 93.8969 45.7757L99.0751 45.4395L99.2003 47.3419L94.3187 47.6589C93.8033 47.6923 93.4031 47.8595 93.118 48.1596C92.833 48.4597 92.7054 48.8378 92.7354 49.293C92.7539 49.5734 92.8406 49.841 92.9956 50.0948C93.1505 50.3486 93.3695 50.5509 93.6524 50.7017C93.9389 50.855 94.2888 50.9187 94.7017 50.8919Z" fill="white"/>
<path d="M88.0343 56.3649C88.0772 56.1088 88.1377 55.8753 88.2163 55.6636C88.2906 55.455 88.3647 55.2914 88.4386 55.1711L89.8414 55.8521C89.7153 56.1123 89.636 56.3502 89.6035 56.5657C89.5709 56.7812 89.6075 56.9809 89.7128 57.1656C89.814 57.3534 90.0069 57.5291 90.2914 57.6935L90.6988 57.9263L99.3905 56.3873L99.0563 58.3832L92.6767 59.2201L92.6628 59.3033L98.4253 62.1508L98.0903 64.1512L89.6124 59.4671C89.2117 59.2477 88.8801 58.9899 88.6178 58.6937C88.3519 58.3969 88.1686 58.0574 88.0677 57.6742C87.9631 57.2931 87.9519 56.857 88.0343 56.3649Z" fill="white"/>
<path d="M93.0726 81.7462L83.6272 76.4113L84.493 74.9001L93.4584 74.1148L93.5032 74.0366L87.0694 70.4027L88.0427 68.7037L97.4881 74.0386L96.6168 75.5595L87.6496 76.3374L87.6025 76.4196L94.0409 80.0561L93.0726 81.7462Z" fill="white"/>
<path d="M79.1693 81.0353C79.7292 80.4727 80.3381 80.1081 80.9974 79.9402C81.6568 79.7724 82.3236 79.7944 82.9979 80.0062C83.6696 80.2207 84.3046 80.6221 84.9035 81.2096C85.5023 81.7971 85.9154 82.424 86.142 83.0908C86.366 83.7602 86.3974 84.4233 86.2363 85.0799C86.0752 85.7366 85.7153 86.3455 85.1555 86.9082C84.5963 87.4702 83.9873 87.8347 83.328 88.0026C82.6687 88.1705 82.0019 88.1459 81.3277 87.9289C80.6508 87.7146 80.0133 87.3134 79.4144 86.7258C78.8156 86.1383 78.4051 85.5114 78.1836 84.8444C77.9596 84.1801 77.928 83.5196 78.0891 82.8629C78.2503 82.2063 78.6101 81.5973 79.1693 81.0353ZM80.2567 82.1165C79.9535 82.4212 79.7844 82.7585 79.7489 83.1291C79.7158 83.502 79.7932 83.879 79.9809 84.2601C80.1654 84.6444 80.4344 85.0087 80.7867 85.3543C81.1415 85.7024 81.5128 85.9663 81.9021 86.1449C82.2906 86.3291 82.6724 86.4026 83.0476 86.3654C83.4229 86.3281 83.7618 86.1574 84.065 85.8527C84.3761 85.54 84.5485 85.1969 84.5842 84.8213C84.6165 84.4489 84.5392 84.0694 84.3522 83.6826C84.1645 83.3015 83.8936 82.9367 83.5388 82.5886C83.1865 82.243 82.817 81.9796 82.4311 81.7978C82.0418 81.6193 81.6599 81.5483 81.2854 81.5849C80.91 81.6273 80.5678 81.8038 80.2567 82.1165Z" fill="white"/>
<path d="M73.374 86.2582L79.4007 92.1663L77.6978 93.1264L73.6226 88.8807L73.5577 88.9174L75.1138 94.5832L73.4296 95.5328L69.3425 91.3302L69.2735 91.3691L70.8602 96.9814L69.1524 97.9443L67.1357 89.7754L68.8751 88.7947L72.9231 92.8012L73.0206 92.7462L71.6297 87.2416L73.374 86.2582Z" fill="white"/>
<path d="M57.3998 97.4865L57.604 99.614L59.2084 98.1816L60.0183 99.1884L58.261 100.426L60.3106 101.084L59.8411 102.285L57.8786 101.395L58.3247 103.486L57.05 103.68L56.8402 101.553L55.2358 102.985L54.4259 101.979L56.1887 100.741L54.1336 100.083L54.6031 98.8816L56.5656 99.7719L56.125 97.6803L57.3998 97.4865Z" fill="white"/>
</g>
</svg>
