<svg width="106" height="85" viewBox="0 0 106 85" fill="none" xmlns="http://www.w3.org/2000/svg">
<path d="M99.4729 0.240234V18.0346H89.2907C81.2841 18.0346 77.2808 22.0471 77.2808 30.072V38.4458H81.7192C88.6814 38.4458 94.4253 40.5393 98.9507 44.7262C103.65 48.9131 106 54.234 106 60.6888C106 67.667 103.65 73.3368 98.9507 77.6982C94.4253 82.0596 88.6814 84.2402 81.7192 84.2402C74.5829 84.2402 68.7521 82.0596 64.2266 77.6982C59.7012 73.1624 57.4384 67.1437 57.4384 59.6421V29.5486C57.4384 10.0097 67.1856 0.240234 86.6798 0.240234H99.4729ZM42.0345 0.240234V18.0346H31.8522C23.8457 18.0346 19.8424 22.0471 19.8424 30.072V38.4458H24.2808C31.243 38.4458 36.9869 40.5393 41.5123 44.7262C46.2118 48.9131 48.5616 54.234 48.5616 60.6888C48.5616 67.667 46.2118 73.3368 41.5123 77.6982C36.9869 82.0596 31.243 84.2402 24.2808 84.2402C17.1445 84.2402 11.3136 82.0596 6.78818 77.6982C2.26273 73.1624 0 67.1437 0 59.6421V29.5486C0 10.0097 9.74713 0.240234 29.2414 0.240234H42.0345Z" fill="#5C7EFF"/>
</svg>
