<svg width="211" height="158" viewBox="0 0 211 158" fill="none" xmlns="http://www.w3.org/2000/svg">
<path d="M201.271 61.5098L-3.32683 61.5098C-6.21032 61.5098 -8.54785 63.8473 -8.54785 66.7308L-8.54785 152.062C-8.54785 154.945 -6.21032 157.283 -3.32683 157.283H201.271C204.155 157.283 206.492 154.945 206.492 152.062V66.7308C206.492 63.8473 204.155 61.5098 201.271 61.5098Z" fill="#374151"/>
<path d="M126.871 46.2665H71.0481C66.8155 46.2603 62.7581 44.5762 59.7652 41.5833C56.7723 38.5905 55.0882 34.533 55.082 30.3005V15.966C55.0882 11.7335 56.7723 7.67604 59.7652 4.68316C62.7581 1.69029 66.8155 0.00616543 71.0481 0L126.871 0C131.105 0 135.166 1.68213 138.161 4.67634C141.155 7.67054 142.837 11.7316 142.837 15.966V30.2306C142.846 32.3331 142.44 34.4168 141.642 36.362C140.843 38.3071 139.669 40.0755 138.185 41.5655C136.702 43.0555 134.939 44.2378 132.997 45.0445C131.055 45.8513 128.973 46.2665 126.871 46.2665ZM71.0481 11.7239C69.9246 11.7359 68.8501 12.186 68.0534 12.9783C67.2568 13.7706 66.8008 14.8426 66.7827 15.966V30.2306C66.7827 31.3742 67.237 32.4709 68.0456 33.2796C68.8543 34.0883 69.9511 34.5426 71.0947 34.5426H126.917C128.061 34.5426 129.158 34.0883 129.967 33.2796C130.775 32.4709 131.229 31.3742 131.229 30.2306V15.966C131.229 14.8224 130.775 13.7256 129.967 12.917C129.158 12.1083 128.061 11.654 126.917 11.654L71.0481 11.7239Z" fill="#374151"/>
<path opacity="0.2" d="M201.248 61.5098L-3.30354 61.5098C-3.99113 61.5067 -4.67254 61.6395 -5.30867 61.9005C-5.94481 62.1615 -6.52311 62.5456 -7.0104 63.0308C-7.49769 63.5159 -7.88437 64.0925 -8.1482 64.7274C-8.41204 65.3624 -8.54786 66.0432 -8.54785 66.7308L-8.54785 94.1178L97.97 115.095C98.6228 115.237 99.2984 115.237 99.9512 115.095L206.492 94.1178V66.7308C206.492 66.0432 206.356 65.3624 206.093 64.7274C205.829 64.0925 205.442 63.5159 204.955 63.0308C204.468 62.5456 203.889 62.1615 203.253 61.9005C202.617 61.6395 201.936 61.5067 201.248 61.5098Z" fill="black"/>
<path d="M206.632 88.2217L99.9042 109.199C99.2412 109.316 98.5628 109.316 97.8997 109.199L-8.82787 88.2217C-10.0004 87.9902 -11.0567 87.3599 -11.8173 86.4379C-12.5778 85.5159 -12.9957 84.359 -13 83.1638L-13 31.653C-13 30.9766 -12.8668 30.3067 -12.6079 29.6818C-12.349 29.0568 -11.9696 28.489 -11.4913 28.0107C-11.013 27.5323 -10.4451 27.1529 -9.82018 26.8941C-9.19522 26.6352 -8.52539 26.502 -7.84894 26.502L205.699 26.502C206.376 26.502 207.046 26.6352 207.671 26.8941C208.296 27.1529 208.864 27.5323 209.342 28.0107C209.82 28.489 210.2 29.0568 210.458 29.6818C210.717 30.3067 210.851 30.9766 210.851 31.653V83.2571C210.827 84.444 210.394 85.5864 209.626 86.491C208.857 87.3957 207.799 88.007 206.632 88.2217Z" fill="#374151"/>
<path d="M110.02 95.2363H87.9472C85.2181 95.2363 83.0059 97.4487 83.0059 100.178V114.139C83.0059 116.868 85.2181 119.08 87.9472 119.08H110.02C112.749 119.08 114.961 116.868 114.961 114.139V100.178C114.961 97.4487 112.749 95.2363 110.02 95.2363Z" fill="#374151"/>
<path opacity="0.4" d="M110.02 95.2363H87.9472C85.2181 95.2363 83.0059 97.4487 83.0059 100.178V114.139C83.0059 116.868 85.2181 119.08 87.9472 119.08H110.02C112.749 119.08 114.961 116.868 114.961 114.139V100.178C114.961 97.4487 112.749 95.2363 110.02 95.2363Z" fill="black"/>
</svg>
